<?xml version="1.0" encoding="UTF-8"?>
<svg id="Layer_1" data-name="Layer 1" xmlns="http://www.w3.org/2000/svg" viewBox="0 0 1642.21 1135.66">
  <defs>
    <style>
      .cls-1 {
        fill: #005dba;
      }

      .cls-1, .cls-2 {
        stroke-width: 0px;
      }

      .cls-2 {
        fill: #fff;
      }
    </style>
  </defs>
  <rect class="cls-1" width="1642.21" height="1135.66"/>
  <path class="cls-2" d="m649.69,608.12h-40.63l31.68-158.39h34.22l8.38,20.88c.8,1.99-.17,4.25-2.16,5.05h0c-1.99.8-4.26-.17-5.05-2.16l-6.42-16h-22.59l-28.57,142.84h24.78l19.88-99.82,34.96,83.9h11.01l32.4-41.61c2.53-3.24,7.7-.84,6.87,3.18h0c-.12.59-.38,1.13-.74,1.61l-34.73,44.59h-19.98l-27.14-65.13-16.14,81.05Z"/>
  <path class="cls-2" d="m786.75,608.12h-40.63l19.36-97.64c.42-2.11,2.46-3.47,4.57-3.06h0c2.11.42,3.47,2.46,3.06,4.57l-17.52,88.35h24.78l28.37-142.84h-23.28l-76.57,97.68-15.06-37.53c-.8-1.99.17-4.25,2.16-5.05h0c1.99-.8,4.26.17,5.05,2.16l10.04,25.02,70.59-90.06h36.53l-31.45,158.39Z"/>
  <rect class="cls-2" x="932.32" y="559.98" width="33.54" height="7.77" rx="3.89" ry="3.89" transform="translate(-130.55 794.32) rotate(-42.76)"/>
  <path class="cls-2" d="m898.46,610.7c-15.89,0-29.82-2.92-41.43-8.69-11.73-5.82-20.91-14.06-27.3-24.47-6.38-10.4-9.61-22.56-9.61-36.13s2.38-25.72,7.07-37.19c4.7-11.49,11.44-21.59,20.02-30.03,8.57-8.42,18.92-15.11,30.75-19.87,11.82-4.76,25.16-7.17,39.64-7.17s26.51,2.43,37.3,7.22c9.56,4.25,17.21,10.21,22.79,17.76,1.37,1.85.91,4.47-1.05,5.67h0c-1.74,1.07-3.98.59-5.2-1.05-4.78-6.46-11.39-11.59-19.69-15.28-9.78-4.35-21.27-6.55-34.14-6.55s-25.85,2.22-36.74,6.6c-10.87,4.38-20.36,10.51-28.2,18.21-7.83,7.69-13.98,16.92-18.28,27.42-4.31,10.53-6.49,22.05-6.49,34.24s2.85,22.91,8.46,32.07c5.61,9.15,13.73,16.41,24.13,21.57,10.52,5.23,23.29,7.88,37.97,7.88h.37c17.59-.06,34.53-6.91,47.69-19.3l79.45-74.8,10.29,25.33,7.02-6.97-8.87-26.25,28.86-29.24c1.62-1.64,1.62-4.31-.01-5.95-.8-.81-1.86-1.25-3-1.25h0c-1.13,0-2.21.45-3,1.25l-30.46,30.83-23.73-9.3-6.15,6.11,23,10.28-36.5,33.75c-1.58,1.46-4.04,1.36-5.49-.21h0c-1.46-1.58-1.36-4.04.21-5.49l27.85-25.75-22.59-10.11,17.79-17.66,23.68,9.28,27.07-27.4c2.12-2.14,5-3.35,8.02-3.35h0c2.51,0,5.02.66,7.08,2.09,6.29,4.36,6.88,13.15,1.76,18.34l-25.49,25.83,8.89,26.3-18.74,18.61-10.42-25.63-71.19,67.03c-14.6,13.75-33.42,21.36-52.99,21.42h-.4Z"/>
  <path class="cls-2" d="m901.47,577.01c0,2.22-1.86,4.01-4.07,3.89-7.77-.43-14.65-2.12-20.47-5.03-6.97-3.48-12.37-8.45-16.04-14.75-3.63-6.23-5.48-13.59-5.48-21.86s1.38-16.56,4.1-24.12c2.75-7.63,6.82-14.41,12.09-20.14,5.3-5.76,11.72-10.28,19.08-13.42,7.35-3.13,15.61-4.72,24.55-4.72s16.71,1.66,23.26,4.93c5.34,2.67,9.95,6.36,13.76,10.99,1.46,1.78,1.1,4.43-.81,5.72h0c-1.69,1.14-3.93.75-5.22-.82-3.11-3.77-6.87-6.77-11.21-8.94-5.45-2.73-12.11-4.11-19.78-4.11s-15.12,1.38-21.5,4.1c-6.34,2.71-11.86,6.59-16.41,11.54-4.57,4.97-8.1,10.86-10.5,17.51-2.42,6.72-3.64,13.95-3.64,21.49,0,6.88,1.49,12.91,4.42,17.95,2.94,5.05,7.12,8.88,12.79,11.71,4.86,2.43,10.68,3.84,17.36,4.22,2.07.12,3.71,1.8,3.71,3.88h0Z"/>
  <path class="cls-2" d="m901.47,577.01c0,2.22-1.86,4.01-4.07,3.89-7.77-.43-14.65-2.12-20.47-5.03-6.97-3.48-12.37-8.45-16.04-14.75-3.63-6.23-5.48-13.59-5.48-21.86s1.38-16.56,4.1-24.12c2.75-7.63,6.82-14.41,12.09-20.14,5.3-5.76,11.72-10.28,19.08-13.42,7.35-3.13,15.61-4.72,24.55-4.72s16.71,1.66,23.26,4.93c5.34,2.67,9.95,6.36,13.76,10.99,1.46,1.78,1.1,4.43-.81,5.72h0c-1.69,1.14-3.93.75-5.22-.82-3.11-3.77-6.87-6.77-11.21-8.94-5.45-2.73-12.11-4.11-19.78-4.11s-15.12,1.38-21.5,4.1c-6.34,2.71-11.86,6.59-16.41,11.54-4.57,4.97-8.1,10.86-10.5,17.51-2.42,6.72-3.64,13.95-3.64,21.49,0,6.88,1.49,12.91,4.42,17.95,2.94,5.05,7.12,8.88,12.79,11.71,4.86,2.43,10.68,3.84,17.36,4.22,2.07.12,3.71,1.8,3.71,3.88h0Z"/>
  <g>
    <path class="cls-2" d="m658.7,632.19c-4.79-3.82-11.58-5.73-20.35-5.73h-28.64l-14.07,70.36h16.38l3.91-19.7h13.85l11.09,19.7h17.19l-12.28-21.66c1.42-.44,2.78-.96,4.09-1.56,5.13-2.34,9.08-5.68,11.86-10,2.78-4.32,4.17-9.43,4.17-15.33,0-6.9-2.4-12.26-7.19-16.08Zm-13.77,28.29c-2.98,2.45-7.19,3.67-12.61,3.67h-13.83l4.9-24.42h12.85c4.15,0,7.39.82,9.7,2.46,2.31,1.64,3.47,4.17,3.47,7.59,0,4.69-1.49,8.26-4.47,10.7Z"/>
    <path class="cls-2" d="m715.14,644.91c-3.82-1.98-8.38-2.97-13.67-2.97-6.23,0-11.74,1.37-16.53,4.12-4.79,2.75-8.54,6.48-11.26,11.21-2.71,4.72-4.07,10.1-4.07,16.13,0,4.89,1.14,9.15,3.42,12.76,2.28,3.62,5.48,6.43,9.6,8.44,4.12,2.01,9,3.02,14.62,3.02,4.09,0,8.09-.59,12.01-1.76,3.92-1.17,7.45-3,10.6-5.48l-6.53-10.35c-1.81,1.61-3.99,2.85-6.53,3.72-2.55.87-5.19,1.31-7.94,1.31-4.69,0-8.19-1.02-10.5-3.06-2.06-1.82-3.2-4.49-3.42-7.99h41.36c.27-1.27.49-2.61.65-4.02.17-1.41.25-2.81.25-4.22,0-4.89-1.06-9.1-3.17-12.61-2.11-3.52-5.08-6.26-8.9-8.24Zm-23.07,11.26c2.38-1.64,5.28-2.46,8.69-2.46,2.75,0,5.09.55,7.04,1.66,1.94,1.1,3.35,2.68,4.22,4.72.58,1.37.82,2.97.77,4.77h-26.78c.2-.65.42-1.29.68-1.91,1.21-2.88,3-5.14,5.38-6.78Z"/>
    <polygon class="cls-2" points="731.62 696.82 747.2 696.82 757.96 642.75 742.38 642.75 731.62 696.82"/>
    <path class="cls-2" d="m752.83,635.21c3.15,0,5.68-.89,7.59-2.66,1.91-1.77,2.86-4.1,2.86-6.98,0-2.21-.85-4.07-2.56-5.58-1.71-1.51-3.94-2.26-6.68-2.26-3.08,0-5.58.89-7.49,2.66-1.91,1.78-2.86,4-2.86,6.68,0,2.28.84,4.21,2.51,5.78,1.67,1.58,3.88,2.36,6.63,2.36Z"/>
    <path class="cls-2" d="m782.63,655.36c1.64-1.04,4.3-1.56,7.99-1.56,2.55,0,5.21.29,7.99.86,2.78.57,5.44,1.66,7.99,3.27l5.63-11.46c-2.48-1.41-5.5-2.51-9.05-3.32-3.55-.8-7.2-1.21-10.96-1.21-5.23,0-9.9.74-14.02,2.21-4.12,1.48-7.34,3.62-9.65,6.43-2.31,2.82-3.47,6.27-3.47,10.35,0,3.02.69,5.44,2.06,7.29,1.37,1.84,3.15,3.25,5.33,4.22,2.18.97,4.49,1.73,6.93,2.26,2.45.54,4.74,1,6.89,1.41,2.14.4,3.92.92,5.33,1.56,1.41.64,2.11,1.59,2.11,2.86,0,1.61-.84,2.88-2.51,3.82-1.68.94-4.36,1.41-8.04,1.41-3.42,0-6.82-.47-10.2-1.41-3.38-.94-6.25-2.18-8.59-3.72l-6.03,11.36c2.28,1.61,5.51,2.95,9.7,4.02,4.19,1.07,8.66,1.61,13.42,1.61,5.23,0,9.88-.7,13.97-2.11,4.09-1.41,7.32-3.53,9.7-6.38,2.38-2.85,3.57-6.32,3.57-10.4,0-3.02-.69-5.41-2.06-7.19-1.37-1.77-3.13-3.15-5.28-4.12-2.15-.97-4.46-1.71-6.93-2.21-2.48-.5-4.79-.97-6.94-1.41-2.15-.43-3.9-1.01-5.28-1.71-1.37-.7-2.06-1.69-2.06-2.97,0-1.47.82-2.73,2.46-3.77Z"/>
    <path class="cls-2" d="m861.78,644.91c-3.82-1.98-8.38-2.97-13.67-2.97-6.23,0-11.74,1.37-16.53,4.12-4.79,2.75-8.54,6.48-11.26,11.21-2.71,4.72-4.07,10.1-4.07,16.13,0,4.89,1.14,9.15,3.42,12.76,2.28,3.62,5.48,6.43,9.6,8.44,4.12,2.01,9,3.02,14.62,3.02,4.09,0,8.09-.59,12.01-1.76,3.92-1.17,7.45-3,10.6-5.48l-6.53-10.35c-1.81,1.61-3.99,2.85-6.53,3.72-2.55.87-5.19,1.31-7.94,1.31-4.69,0-8.19-1.02-10.5-3.06-2.06-1.82-3.2-4.49-3.42-7.99h41.36c.27-1.27.49-2.61.65-4.02.17-1.41.25-2.81.25-4.22,0-4.89-1.06-9.1-3.17-12.61-2.11-3.52-5.08-6.26-8.9-8.24Zm-23.07,11.26c2.38-1.64,5.28-2.46,8.69-2.46,2.75,0,5.09.55,7.04,1.66,1.94,1.1,3.35,2.68,4.22,4.72.58,1.37.82,2.97.77,4.77h-26.78c.2-.65.42-1.29.68-1.91,1.21-2.88,3-5.14,5.38-6.78Z"/>
    <path class="cls-2" d="m932.24,644.81c-3.22-1.91-7.14-2.86-11.76-2.86-4.29,0-8.36.92-12.21,2.76-2.02.97-3.86,2.23-5.54,3.77l1.17-5.73h-14.88l-10.75,54.07h15.68l5.43-27.44c1.01-4.69,2.83-8.17,5.48-10.45,2.65-2.28,5.95-3.42,9.9-3.42s6.45,1.07,7.89,3.22c1.44,2.15,1.76,5.19.96,9.15l-5.83,28.95h15.68l6.03-29.95c1.07-5.43.94-9.98-.4-13.67-1.34-3.68-3.62-6.48-6.83-8.39Z"/>
    <path class="cls-2" d="m997.92,660.19c2.31-2.71,3.97-5.38,4.97-7.99,1.01-2.61,1.51-5.29,1.51-8.04,0-3.68-1.02-6.93-3.07-9.75-2.04-2.82-4.91-5.04-8.59-6.68-3.69-1.64-8.01-2.46-12.97-2.46-6.1,0-11.63,1.17-16.58,3.52-4.96,2.35-8.88,5.46-11.76,9.35l10.96,7.94c2.01-2.34,4.3-4.15,6.89-5.43,2.58-1.27,5.28-1.91,8.09-1.91,3.42,0,5.99.7,7.74,2.11,1.74,1.41,2.61,3.28,2.61,5.63,0,1.54-.3,3.03-.9,4.47-.6,1.44-1.66,2.97-3.17,4.57-1.51,1.61-3.6,3.48-6.28,5.63l-32.06,25.13-2.11,10.55h53.27l2.61-13.27h-29.53l18.68-14.47c4.15-3.22,7.39-6.18,9.7-8.89Z"/>
    <polygon class="cls-2" points="1072.24 668.78 1060.67 668.78 1063.3 655.61 1048.12 655.61 1045.51 668.78 1027.01 668.78 1065.61 626.46 1047.82 626.46 1006.41 671.09 1004.3 682.05 1042.19 682.05 1039.18 696.82 1055.06 696.82 1058.01 682.05 1069.53 682.05 1072.24 668.78"/>
  </g>
  <circle class="cls-2" cx="688.3" cy="494.52" r="5.29"/>
  <path class="cls-2" d="m1035.24,453.4c-12.55,1.16-13.49,2.09-14.65,14.65-1.16-12.55-2.09-13.49-14.65-14.65,12.55-1.16,13.49-2.09,14.65-14.65,1.16,12.55,2.09,13.49,14.65,14.65Z"/>
  <path class="cls-2" d="m1072.24,510.06c-7.02.65-7.54,1.17-8.19,8.19-.65-7.02-1.17-7.54-8.19-8.19,7.02-.65,7.54-1.17,8.19-8.19.65,7.02,1.17,7.54,8.19,8.19Z"/>
  <path class="cls-2" d="m1079.98,453.4c-5.01.46-5.38.83-5.84,5.84-.46-5.01-.83-5.38-5.84-5.84,5.01-.46,5.38-.83,5.84-5.84.46,5.01.83,5.38,5.84,5.84Z"/>
</svg>